<?xml version="1.0" standalone="no"?>
<!DOCTYPE svg PUBLIC "-//W3C//DTD SVG 20010904//EN"
 "http://www.w3.org/TR/2001/REC-SVG-20010904/DTD/svg10.dtd">
<svg version="1.0" xmlns="http://www.w3.org/2000/svg"
 width="260.000000pt" height="260.000000pt" viewBox="0 0 260.000000 260.000000"
 preserveAspectRatio="xMidYMid meet">
<metadata>
Created by potrace 1.14, written by Peter Selinger 2001-2017
</metadata>
<g transform="translate(0.000000,260.000000) scale(0.100000,-0.100000)"
fill="#000000" stroke="none">
<path d="M450 2380 c-62 -100 -111 -182 -109 -184 5 -3 712 -427 746 -447 16
-9 191 -114 391 -234 l363 -217 -33 -21 c-50 -30 -683 -415 -758 -460 -129
-77 -271 -163 -376 -227 -59 -36 -119 -72 -133 -80 -137 -80 -200 -123 -194
-133 6 -11 103 -155 189 -279 21 -32 43 -58 47 -58 4 0 79 44 165 99 196 123
434 271 467 291 14 8 158 98 321 200 163 102 311 194 330 205 18 11 66 41 106
66 40 25 123 77 185 115 l112 69 1 213 0 212 -67 43 c-57 37 -125 79 -318 197
-20 12 -333 206 -409 253 -11 7 -67 41 -126 77 -59 36 -115 70 -126 77 -10 7
-43 27 -73 45 -29 18 -64 40 -77 48 -149 95 -501 310 -507 310 -2 0 -55 -81
-117 -180z"/>
</g>
</svg>
